<?xml version="1.0" standalone="no"?>
<!DOCTYPE svg PUBLIC "-//W3C//DTD SVG 20010904//EN"
 "http://www.w3.org/TR/2001/REC-SVG-20010904/DTD/svg10.dtd">
<svg version="1.0" xmlns="http://www.w3.org/2000/svg"
 width="395.000000pt" height="395.000000pt" viewBox="0 0 395.000000 395.000000"
 preserveAspectRatio="xMidYMid meet">
<metadata>
Created by potrace 1.11, written by Peter Selinger 2001-2013
</metadata>
<g transform="translate(0.000000,395.000000) scale(0.100000,-0.100000)"
fill="#000000" stroke="none">
<path d="M0 1975 l0 -1975 1975 0 1975 0 0 1975 0 1975 -1975 0 -1975 0 0
-1975z m3560 70 l0 -755 -144 0 -144 0 -7 55 c-3 30 -9 55 -12 55 -3 0 -29
-22 -59 -49 -72 -66 -131 -85 -236 -78 -57 4 -94 13 -132 31 -107 52 -190 174
-222 327 -21 96 -14 327 11 409 44 142 113 233 213 282 60 30 75 33 157 33
103 0 143 -15 207 -75 l38 -37 0 279 0 278 165 0 165 0 0 -755z m-1475 660
c86 -23 149 -61 215 -131 62 -67 100 -135 126 -229 25 -88 32 -559 11 -662
-39 -184 -163 -322 -345 -385 -89 -30 -279 -33 -389 -5 -111 29 -109 24 -90
151 8 59 18 110 20 112 3 3 31 -2 63 -10 94 -24 207 -31 260 -16 100 28 164
129 164 258 l0 54 -47 -41 c-62 -55 -132 -75 -234 -68 -231 16 -368 194 -369
478 0 154 41 260 141 365 96 100 197 142 339 143 42 1 102 -6 135 -14z m-1077
-360 c34 -8 81 -24 104 -36 62 -32 133 -104 159 -162 23 -50 24 -65 30 -372 6
-318 11 -360 48 -457 l11 -28 -164 0 -164 0 -17 48 c-10 26 -19 53 -21 60 -2
7 -22 -6 -48 -32 -75 -75 -115 -91 -231 -91 -81 0 -109 4 -147 22 -66 30 -132
95 -159 156 -32 71 -33 201 -2 268 60 132 210 198 451 199 l112 0 0 53 c0 28
-6 63 -13 77 -19 39 -73 62 -131 56 -53 -6 -83 -26 -88 -60 -3 -20 -7 -21
-163 -21 l-160 0 3 45 c8 122 127 235 290 274 76 19 222 19 300 1z"/>
<path d="M3024 2096 c-75 -33 -108 -138 -102 -321 5 -171 40 -237 134 -252 45
-7 115 13 148 43 l26 25 0 217 c0 245 -1 250 -74 283 -48 22 -89 23 -132 5z"/>
<path d="M1900 2452 c-57 -28 -93 -107 -98 -212 -7 -139 28 -223 105 -249 53
-19 139 -2 184 37 l31 26 -4 130 c-5 138 -18 189 -61 234 -49 53 -99 64 -157
34z"/>
<path d="M793 1739 c-64 -19 -100 -102 -70 -165 30 -63 139 -69 218 -13 28 20
29 23 29 105 l0 84 -72 -1 c-40 0 -87 -5 -105 -10z"/>
</g>
</svg>
